<svg t="1590552052885" class="icon" viewBox="0 0 1024 1024" version="1.1" xmlns="http://www.w3.org/2000/svg" p-id="2626" width="200" height="200"><path d="M780.757333 248.149333l-254.634666-74.666666a47.104 47.104 0 0 0-30.549334 0l-258.048 74.666666c-13.568 3.413333-23.765333 16.981333-23.765333 33.962667v339.498667c13.568 40.746667 37.333333 78.08 67.882667 105.258666 40.746667 37.333333 139.221333 88.32 193.536 115.456l13.568 6.784c3.413333 3.413333 10.24 3.413333 16.981333 3.413334 6.826667 0 13.610667 0 20.394667-3.413334 47.530667-23.765333 162.986667-81.493333 207.104-122.24 30.549333-30.549333 54.314667-64.512 67.882666-105.258666l3.413334-339.498667c0-13.568-10.197333-27.178667-23.765334-33.962667z m-27.178666 363.306667a181.888 181.888 0 0 1-54.314667 81.493333c-37.333333 37.333333-146.005333 88.234667-193.536 112l-10.154667-3.413333c-47.530667-23.722667-146.005333-74.666667-183.338666-108.629333-23.765333-23.765333-44.16-50.901333-54.357334-81.493334V292.266667l251.264-74.666667 247.850667 74.666667-3.413333 319.146666z" fill="currentColor" p-id="2627"></path><path d="M512.725333 529.109333c-64.853333 0-116.053333-51.2-116.053333-116.053333 0-64.853333 51.2-116.053333 116.053333-116.053333 64.853333 0 116.053333 51.2 116.053334 116.053333 0 64.853333-51.2 116.053333-116.053334 116.053333z m0-193.962666c-42.24 0-77.909333 35.712-77.909333 77.909333 0 42.24 35.712 77.909333 77.909333 77.909333 42.24 0 77.909333-35.712 77.909334-77.909333 0-42.24-35.712-77.909333-77.909334-77.909333z" fill="currentColor" p-id="2628"></path><path d="M512.725333 695.68c-12.245333 0-20.394667-5.12-20.394666-12.714667v-172.629333c0-7.637333 8.149333-12.714667 20.394666-12.714667s20.394667 5.12 20.394667 12.714667v172.629333c0 7.637333-8.149333 12.714667-20.394667 12.714667z" fill="currentColor" p-id="2629"></path><path d="M515.882667 662.613333h-75.093334c-10.24 0-17.066667-7.978667-17.066666-19.925333s6.826667-19.882667 17.066666-19.882667h75.093334c10.24 0 17.066667 7.936 17.066666 19.882667s-6.826667 19.882667-17.066666 19.882667z" fill="currentColor" p-id="2630"></path></svg>