<svg t="1590477302758" class="icon" viewBox="0 0 1024 1024" version="1.1" xmlns="http://www.w3.org/2000/svg" p-id="2141" width="200" height="200"><path d="M810.666667 770.56a21.333333 21.333333 0 0 1-21.205334 21.461333H234.922667A21.674667 21.674667 0 0 1 213.333333 770.56c0-11.861333 9.813333-16.512 21.589334-16.512h41.472V277.504c0-23.466667 19.328-42.837333 42.837333-42.837333h235.818667c23.509333 0 42.88 19.242667 42.88 42.837333v107.221333h107.178666c23.552 0 42.837333 19.2 42.837334 42.837334v326.485333h41.514666c11.818667 0 21.205333 4.693333 21.205334 16.512z m-250.794667-342.997333V274.517333H314.197333v479.530667h245.717334V427.52h-0.042667z m149.248 326.485333V427.52h-111.232v326.485333h111.232zM383.616 400.597333c-11.861333 0-21.418667-8.405333-21.504-18.688 0-10.24 9.685333-18.688 21.504-18.688h107.178667c11.818667 0 21.461333 8.405333 21.461333 18.688 0 10.24-9.642667 18.688-21.461333 18.688H383.616z m0 257.152c-11.861333 0-21.504-8.405333-21.504-18.645333 0-10.282667 9.685333-18.688 21.504-18.688h107.178667c11.818667 0 21.461333 8.405333 21.461333 18.688 0 10.24-9.642667 18.645333-21.461333 18.645333H383.616z m257.194667-107.136c-11.776 0-21.461333-8.362667-21.461334-18.645333 0-10.24 9.685333-18.688 21.461334-18.688h21.504c11.776 0 21.461333 8.405333 21.461333 18.688 0 10.24-9.685333 18.645333-21.461333 18.645333h-21.504z m0 107.136c-11.776 0-21.461333-8.405333-21.461334-18.645333 0-10.282667 9.685333-18.688 21.461334-18.688h21.504c11.776 0 21.461333 8.405333 21.461333 18.688 0 10.24-9.685333 18.645333-21.461333 18.645333h-21.504z m-257.194667-128.597333c-11.861333 0-21.504-8.362667-21.504-18.645333 0-10.24 9.685333-18.645333 21.504-18.645334h107.178667c11.818667 0 21.461333 8.362667 21.461333 18.645334 0 10.24-9.642667 18.645333-21.461333 18.645333H383.616z" fill="currentColor" p-id="2142"></path></svg>