<?xml version="1.0" standalone="no"?><!DOCTYPE svg PUBLIC "-//W3C//DTD SVG 1.1//EN" "http://www.w3.org/Graphics/SVG/1.1/DTD/svg11.dtd"><svg t="1590495671939" class="icon" viewBox="0 0 1024 1024" version="1.1" xmlns="http://www.w3.org/2000/svg" p-id="6498" xmlns:xlink="http://www.w3.org/1999/xlink" width="200" height="200"><defs><style type="text/css"></style></defs><path d="M896 135.68l-188.714667 203.946667a6.016 6.016 0 0 0-1.493333 5.333333 36.906667 36.906667 0 0 1-62.72 33.066667l-150.442667 150.4 14.848 198.698666L676.352 896 896 135.68z" fill="#007FFF" p-id="6499"></path><path d="M893.952 140.8l-186.709333 201.813333a6.016 6.016 0 0 0-1.493334 5.333334 36.394667 36.394667 0 0 1-62.08 32.682666l-147.84 147.84a2.986667 2.986667 0 0 0-0.853333 2.304l14.592 195.114667 376.490667-567.936 8.106666-17.066667-0.213333-0.085333z" fill="#0069FF" p-id="6500"></path><path d="M888.32 128l-203.946667 188.714667a6.016 6.016 0 0 1-5.333333 1.536 36.906667 36.906667 0 0 0-33.024 62.72l-150.442667 150.442666-198.613333-14.933333L128 347.605333l760.32-219.605333z" fill="#00EED4" p-id="6501"></path><path d="M883.2 130.304L681.386667 317.013333a6.016 6.016 0 0 1-5.290667 1.493334 36.394667 36.394667 0 0 0-32.682667 62.08l-147.882666 147.84a2.986667 2.986667 0 0 1-2.346667 0.853333l-195.114667-14.592 567.978667-376.490667 17.066667-8.106666 0.128 0.213333z" fill="#00D3B4" p-id="6502"></path></svg>