<?xml version="1.0" standalone="no"?><!DOCTYPE svg PUBLIC "-//W3C//DTD SVG 1.1//EN" "http://www.w3.org/Graphics/SVG/1.1/DTD/svg11.dtd"><svg class="icon" width="200px" height="200.00px" viewBox="0 0 1024 1024" version="1.1" xmlns="http://www.w3.org/2000/svg"><path fill="currentColor" d="M293.12 810.666667a39.68 39.68 0 0 1-39.68-39.68V674.133333H298.666667v85.333334h466.346666V260.266667H298.666667v85.333333H253.44V253.013333A39.68 39.68 0 0 1 293.12 213.333333h477.866667a39.68 39.68 0 0 1 39.68 39.68v517.546667a40.106667 40.106667 0 0 1-39.68 40.106667z m213.333333-98.133334l-73.386666-55.893333a40.106667 40.106667 0 0 1-14.08-42.666667l54.186666-180.053333-18.773333-45.653333a39.68 39.68 0 0 1 21.333333-52.053334 36.693333 36.693333 0 0 1 15.36-2.986666h80.64a39.68 39.68 0 0 1 39.68 39.68 36.693333 36.693333 0 0 1-2.986666 15.36l-18.773334 45.653333 53.76 180.053333a42.666667 42.666667 0 0 1-13.653333 42.666667L554.666667 712.533333a42.666667 42.666667 0 0 1-48.64 0z m-49.066666-85.333333l74.666666 55.466667 73.386667-55.893334L554.666667 452.266667h-42.666667z m50.346666-213.333333H554.666667l16.64-39.68h-78.933334z m-274.346666 230.4a23.466667 23.466667 0 0 1-20.053334-27.306667 23.04 23.04 0 0 1 20.053334-19.626667h91.306666a23.893333 23.893333 0 0 1 0 46.933334zM298.666667 548.693333H253.44v-73.813333H298.666667v73.813333zM233.386667 426.666667a23.893333 23.893333 0 0 1 0-46.933334h91.306666a21.333333 21.333333 0 0 1 19.626667 23.466667 21.76 21.76 0 0 1-19.626667 23.466667z"  /></svg>