<?xml version="1.0" standalone="no"?><!DOCTYPE svg PUBLIC "-//W3C//DTD SVG 1.1//EN" "http://www.w3.org/Graphics/SVG/1.1/DTD/svg11.dtd"><svg t="1590563124043" class="icon" viewBox="0 0 1024 1024" version="1.1" xmlns="http://www.w3.org/2000/svg" p-id="2624" xmlns:xlink="http://www.w3.org/1999/xlink" width="200" height="200"><defs><style type="text/css"></style></defs><path d="M64 902.613333h896V960H64v-57.386667z m92.693333-79.445333h715.029334v35.306667H156.693333v-35.306667z" fill="#B3D7FF" p-id="2625"></path><path d="M600.32 222.890667l251.605333 119.168v485.546666H603.584z" fill="#2B8FFF" p-id="2626"></path><path d="M165.525333 187.584L604.629333 64v763.584H165.546667z" fill="#66AEFF" p-id="2627"></path><path d="M396.501333 306.773333h141.226667v15.530667h-141.226667v-15.552z m-164.778666 0h141.226666v15.530667h-141.226666v-15.552z m164.778666 82.368h141.226667v15.552h-141.226667v-15.552z m-164.778666 0h141.226666v15.552h-141.226666v-15.552z m164.778666 82.389334h141.226667v15.552h-141.226667v-15.552z m-164.778666 0h141.226666v15.552h-141.226666v-15.552z m164.778666 82.410666h141.226667v15.530667h-141.226667v-15.530667z m-164.778666 0h141.226666v15.530667h-141.226666v-15.530667z m164.778666 82.389334h141.226667v15.530666h-141.226667v-15.530666z m-164.778666 0h141.226666v15.530666h-141.226666v-15.530666z" fill="#FFFFFF" p-id="2628"></path><path d="M852.608 452.416v23.530667h-129.493333v-23.530667zM852.608 553.941333v23.530667h-129.493333v-23.530667z" fill="#FFFFFF" p-id="2629"></path><path d="M130.197333 849.664h768v52.949333h-768z" fill="#95C5FA" p-id="2630"></path></svg>