<svg t="1590477404744" class="icon" viewBox="0 0 1024 1024" version="1.1" xmlns="http://www.w3.org/2000/svg" p-id="2380" width="200" height="200"><path d="M759.978667 497.493333a17.152 17.152 0 0 1 2.304 25.728c-2.261333 0-2.261333 2.133333-2.261334 2.133334l-111.189333 109.226666a20.693333 20.693333 0 0 1-15.573333 6.4 20.565333 20.565333 0 0 1-15.616-6.4 20.138667 20.138667 0 0 1 0-29.994666l73.386666-70.656h-213.504c-13.354667 0-22.272-8.576-22.272-21.418667 0-12.885333 8.917333-21.418667 22.272-21.418667h213.546667l-73.386667-70.656a20.138667 20.138667 0 0 1 0-29.994666 22.016 22.016 0 0 1 31.146667 0l111.146667 107.093333z m-17.749334 193.365334c13.354667 0 22.272 8.533333 22.272 21.418666v14.933334c0 36.437333-28.970667 64.256-66.773333 64.256H322.901333c-37.845333 0-66.730667-27.818667-66.730666-64.256V298.922667c0-36.394667 28.928-64.256 66.730666-64.256h374.826667c37.845333 0 66.773333 27.861333 66.773333 64.256v14.933333c0 12.885333-8.96 21.461333-22.314666 21.461333-13.354667 0-22.186667-8.576-22.186667-21.461333v-14.933333c0-12.842667-8.96-21.418667-22.272-21.418667H322.901333c-13.397333 0-22.229333 8.533333-22.229333 21.418667v428.330666c0 12.842667 8.874667 21.418667 22.229333 21.418667h374.826667c13.397333 0 22.272-8.533333 22.272-21.418667v-14.933333c0-12.885333 8.874667-21.461333 22.229333-21.461333z" fill="currentColor" p-id="2381"></path></svg>