<?xml version="1.0" standalone="no"?><!DOCTYPE svg PUBLIC "-//W3C//DTD SVG 1.1//EN" "http://www.w3.org/Graphics/SVG/1.1/DTD/svg11.dtd"><svg t="1590559458705" class="icon" viewBox="0 0 1024 1024" version="1.1" xmlns="http://www.w3.org/2000/svg" p-id="2505" xmlns:xlink="http://www.w3.org/1999/xlink" width="200" height="200"><defs><style type="text/css"></style></defs><path d="M583.722667 498.133333l38.272-38.272a122.026667 122.026667 0 0 1-162.56 162.56l38.272-38.229333a73.130667 73.130667 0 0 0 86.058666-86.058667z m-62.421334-58.24a73.130667 73.130667 0 0 0-81.877333 81.877334l-39.253333 39.253333a122.026667 122.026667 0 0 1 160.384-160.384l-39.253334 39.253333z m181.76-61.098666l34.688-34.688C808.533333 408.021333 853.333333 484.053333 853.333333 512.426667c0 52.565333-153.344 268.202667-341.333333 268.202666-57.941333 0-112.554667-20.48-160.426667-50.346666l35.456-35.456c37.888 22.101333 80.256 37.034667 124.970667 37.034666 161.578667 0 292.565333-195.029333 292.565333-219.434666 0-13.354667-39.338667-77.952-101.504-133.632z m-69.802666-50.858667c-36.949333-20.949333-77.994667-34.944-121.258667-34.944-161.578667 0-292.565333 195.072-292.565333 219.434667 0 13.141333 38.058667 75.861333 98.432 130.901333l-34.645334 34.645333C214.144 614.656 170.666667 540.416 170.666667 512.426667c0-52.565333 153.344-268.202667 341.333333-268.202667 56.490667 0 109.824 19.456 156.842667 48.128l-35.584 35.584z m169.6-109.866667a23.466667 23.466667 0 0 1 0 33.194667l-552.533334 552.533333a23.466667 23.466667 0 1 1-33.194666-33.194666l552.533333-552.533334a23.466667 23.466667 0 0 1 33.194667 0z" fill="#B2B2B2" p-id="2506"></path></svg>