<?xml version="1.0" standalone="no"?><!DOCTYPE svg PUBLIC "-//W3C//DTD SVG 1.1//EN" "http://www.w3.org/Graphics/SVG/1.1/DTD/svg11.dtd"><svg class="icon" width="200px" height="200.00px" viewBox="0 0 1024 1024" version="1.1" xmlns="http://www.w3.org/2000/svg"><path fill="currentColor" d="M749.226667 325.546667l-205.653334-102.4a68.693333 68.693333 0 0 0-63.146666 0L274.773333 325.973333a70.4 70.4 0 0 0-39.68 63.573334v244.48a72.106667 72.106667 0 0 0 39.253334 64l205.653333 102.826666a72.106667 72.106667 0 0 0 63.573333 0l205.653334-102.826666a70.4 70.4 0 0 0 39.68-63.573334V389.546667a71.68 71.68 0 0 0-39.68-64z m-256 436.906666l-200.96-99.84a32.426667 32.426667 0 0 1-17.493334-28.586666V393.386667h7.68l209.493334 104.96z m19.2-298.666666L298.666667 357.546667h3.84l194.56-97.28a32.426667 32.426667 0 0 1 28.16 0L725.333333 357.546667h-3.84L512 463.786667zM748.8 640a31.146667 31.146667 0 0 1-17.066667 23.893333l-199.68 99.84v-265.386666l209.066667-104.106667h6.826667z"  /></svg>