<svg t="1590477172452" class="icon" viewBox="0 0 1024 1024" version="1.1" xmlns="http://www.w3.org/2000/svg" p-id="1903" width="200" height="200"><path d="M511.274667 213.589333a297.813333 297.813333 0 0 0-297.685334 297.685334 297.813333 297.813333 0 0 0 297.685334 297.728 297.856 297.856 0 0 0 297.728-297.728 297.898667 297.898667 0 0 0-297.728-297.685334z m0 553.301334a255.573333 255.573333 0 1 1 0-511.146667 255.573333 255.573333 0 1 1 0 511.146667z m152.405333-120.490667a154.453333 154.453333 0 0 0-87.296-102.144 114.176 114.176 0 0 0 52.992-96.426667 114.474667 114.474667 0 0 0-114.389333-114.346666c-63.146667 0-114.346667 51.2-114.432 114.346666 0 40.746667 21.034667 76.373333 52.906666 96.426667a153.344 153.344 0 0 0-87.552 102.144 20.394667 20.394667 0 0 0 29.994667 22.656 20.309333 20.309333 0 0 0 9.386667-12.458667 112.938667 112.938667 0 0 1 218.666666 0 20.48 20.48 0 0 0 24.832 14.506667 20.053333 20.053333 0 0 0 14.890667-24.746667z m-148.608-272.213333a73.6 73.6 0 1 1 0 147.2 73.6 73.6 0 0 1 0-147.2z" fill="currentColor" p-id="1904"></path></svg>