<svg t="1590551997856" class="icon" viewBox="0 0 1024 1024" version="1.1" xmlns="http://www.w3.org/2000/svg" p-id="2507" width="200" height="200"><path d="M244.608 213.333333C204.8 213.333333 170.666667 256.042667 170.666667 295.850667V728.32c0 39.808 34.133333 82.346667 73.941333 82.346667h534.784C819.2 810.666667 853.333333 768.128 853.333333 728.32V295.850667C853.333333 256.042667 819.2 213.333333 779.392 213.333333H244.608zM775.253333 763.093333H248.746667c-19.925333 0-29.866667-20.693333-29.866667-37.76V295.850667c0-19.882667 12.8-34.133333 29.866667-34.133334h526.506666c19.925333 0 34.133333 17.066667 34.133334 34.133334V725.333333c0 19.925333-17.066667 37.76-34.133334 37.76zM742.4 388.266667h-153.6c-8.533333 0-14.208 8.533333-14.208 19.925333 0 11.349333 5.674667 19.882667 14.208 19.882667h153.6c8.533333 0 14.208-8.533333 14.208-19.882667 0-11.392-5.674667-19.925333-14.208-19.925333z m0 98.133333h-153.6c-8.533333 0-14.208 8.533333-14.208 19.925333 0 11.349333 5.674667 19.882667 14.208 19.882667h153.6c8.533333 0 14.208-8.533333 14.208-19.882667 0-11.392-5.674667-19.925333-14.208-19.925333z m0 102.4h-128c-8.533333 0-14.208 8.533333-14.208 19.925333 0 11.349333 5.674667 19.882667 14.208 19.882667h128c8.533333 0 14.208-8.533333 14.208-19.882667 0-11.392-5.674667-19.925333-14.208-19.925333z m-290.133333-48.64c22.741333-17.066667 34.133333-45.525333 34.133333-73.941333 0-54.058667-42.666667-96.725333-96.725333-96.725334-54.016 0-96.682667 42.666667-96.682667 96.725334 0 31.274667 14.208 56.874667 34.133333 73.941333-36.992 17.066667-68.266667 51.2-82.517333 93.866667-2.816 8.533333 2.858667 19.925333 11.392 22.741333 11.392 2.858667 19.925333-2.816 22.741333-11.349333 14.250667-48.384 56.917333-79.658667 108.117334-79.658667 48.341333 0 93.866667 31.274667 108.074666 79.658667 2.858667 8.533333 11.392 14.208 17.066667 14.208h5.674667a19.328 19.328 0 0 0 11.392-22.741334c-8.533333-45.525333-36.992-79.658667-76.8-96.725333zM389.674667 401.109333c34.133333 0 59.733333 25.6 59.733333 59.733334 0 34.133333-25.6 59.733333-59.733333 59.733333-34.133333 0-59.733333-25.6-59.733334-59.733333 0-34.133333 28.458667-59.733333 59.733334-59.733334z" fill="currentColor" p-id="2508"></path></svg>