<?xml version="1.0" standalone="no"?><!DOCTYPE svg PUBLIC "-//W3C//DTD SVG 1.1//EN" "http://www.w3.org/Graphics/SVG/1.1/DTD/svg11.dtd"><svg t="1590495765910" class="icon" viewBox="0 0 1024 1024" version="1.1" xmlns="http://www.w3.org/2000/svg" p-id="6740" xmlns:xlink="http://www.w3.org/1999/xlink" width="200" height="200"><defs><style type="text/css"></style></defs><path d="M668.330667 756.266667a12.672 12.672 0 0 0 2.688 2.474666 162.901333 162.901333 0 0 1 48.384 87.04 52.778667 52.778667 0 0 0 15.402666 34.218667 52.992 52.992 0 1 0 43.050667-90.154667 162.901333 162.901333 0 0 1-90.709333-50.474666 12.672 12.672 0 0 0-18.773334 16.896" fill="#FB6500" p-id="6741"></path><path d="M835.925333 797.013333a12.672 12.672 0 0 0 2.432-2.688 162.901333 162.901333 0 0 1 87.04-48.384 52.778667 52.778667 0 0 0 34.261334-15.402666 52.992 52.992 0 1 0-90.197334-43.050667 162.901333 162.901333 0 0 1-50.474666 90.709333 12.672 12.672 0 0 0 16.938666 18.773334" fill="#0082EF" p-id="6742"></path><path d="M876.629333 629.418667a12.672 12.672 0 0 0-2.645333-2.432 162.901333 162.901333 0 0 1-48.426667-87.04 52.778667 52.778667 0 0 0-15.402666-34.261334 52.992 52.992 0 1 0-43.050667 90.197334 162.901333 162.901333 0 0 1 90.709333 50.474666 12.672 12.672 0 0 0 18.816-16.938666" fill="#2DBC00" p-id="6743"></path><path d="M709.077333 588.714667a12.672 12.672 0 0 0-2.474666 2.645333 162.901333 162.901333 0 0 1-87.04 48.426667 52.778667 52.778667 0 0 0-34.218667 15.402666 53.034667 53.034667 0 1 0 90.154667 43.050667 162.901333 162.901333 0 0 1 50.474666-90.709333 12.672 12.672 0 0 0-16.896-18.816" fill="#FFCC00" p-id="6744"></path><path d="M787.882667 329.770667a325.12 325.12 0 0 0-58.88-83.584c-61.44-63.573333-147.498667-104.533333-242.261334-115.285334-16.64-1.92-33.408-2.858667-50.133333-2.901333-15.488 0-31.616 0.896-48 2.688-95.146667 10.325333-181.717333 51.072-243.626667 114.688a325.290667 325.290667 0 0 0-59.178666 83.328 291.242667 291.242667 0 0 0-30.336 129.365333c0 57.728 17.578667 114.602667 50.773333 164.565334 18.773333 28.245333 50.944 64.768 78.421333 87.168l-15.232 62.976-4.352 17.749333a28.501333 28.501333 0 0 0-1.792 5.504c-0.256 1.152-0.341333 2.346667-0.469333 3.584-0.085333 0.896-0.256 1.792-0.256 2.730667 0 16.213333 13.098667 29.354667 29.312 29.354666a29.013333 29.013333 0 0 0 14.506667-3.968l0.384-0.256c0.64-0.341333 1.28-0.682667 1.877333-1.109333l108.8-54.613333a422.058667 422.058667 0 0 0 71.125333 13.738666 440.490667 440.490667 0 0 0 98.133334-0.256 426.410667 426.410667 0 0 0 96.085333-22.485333 52.821333 52.821333 0 0 1-36.096-55.381333c-22.186667 7.04-44.970667 11.946667-68.096 14.549333a369.109333 369.109333 0 0 1-82.218667 0.256c-2.773333-0.298667-5.546667-0.725333-8.277333-1.109333a362.581333 362.581333 0 0 1-53.930667-11.306667 36.778667 36.778667 0 0 0-29.013333 2.986667l-2.304 1.152-69.76 41.173333H232.96c-1.450667 0.853333-2.261333 1.194667-3.029333 1.194667a4.522667 4.522667 0 0 1-4.437334-4.650667l2.56-10.410667 2.986667-11.306666 10.325333-39.338667a28.16 28.16 0 0 0-10.112-31.232 296.106667 296.106667 0 0 1-27.946666-23.466667 273.493333 273.493333 0 0 1-39.68-46.933333 234.24 234.24 0 0 1-40.192-129.792c0-35.2 8.064-69.461333 23.893333-101.76a260.949333 260.949333 0 0 1 47.530667-66.858667C245.76 238.250667 317.354667 204.8 396.373333 196.138667c13.354667-1.493333 26.794667-2.218667 40.234667-2.261334 13.568 0 27.733333 0.853333 41.984 2.432 78.677333 8.96 149.845333 42.666667 200.362667 94.890667 19.541333 20.224 35.413333 42.752 47.232 66.986667a229.12 229.12 0 0 1 23.509333 100.949333c0 3.626667-0.213333 7.253333-0.426667 10.837333a52.906667 52.906667 0 0 1 65.066667 7.637334c0.896 0.853333 1.664 1.877333 2.474667 2.816a290.986667 290.986667 0 0 0-28.970667-150.656" fill="#0079DE" p-id="6745"></path></svg>