<?xml version="1.0" standalone="no"?><!DOCTYPE svg PUBLIC "-//W3C//DTD SVG 1.1//EN" "http://www.w3.org/Graphics/SVG/1.1/DTD/svg11.dtd"><svg t="1590495761583" class="icon" viewBox="0 0 1024 1024" version="1.1" xmlns="http://www.w3.org/2000/svg" p-id="6620" xmlns:xlink="http://www.w3.org/1999/xlink" width="200" height="200"><defs><style type="text/css"></style></defs><path d="M676.522667 359.296c10.666667 0 21.376 0.725333 31.872 1.962667-28.672-133.376-171.349333-232.576-334.293334-232.576-182.186667 0-331.264 124.16-331.264 281.770666 0 91.008 49.664 165.802667 132.693334 223.701334L142.336 733.866667l115.754667-58.026667c41.514667 8.149333 74.837333 16.554667 116.138666 16.554667 10.325333 0 20.650667-0.554667 30.976-1.28a249.045333 249.045333 0 0 1-10.154666-69.461334c-0.170667-144.768 123.989333-262.357333 281.429333-262.357333z m-178.090667-89.728c24.917333 0 41.472 16.384 41.472 41.301333 0 24.746667-16.554667 41.514667-41.472 41.514667-24.746667 0-49.706667-16.597333-49.706667-41.514667s24.746667-41.301333 49.706667-41.301333z m-231.893333 82.773333c-24.746667 0-49.92-16.554667-49.92-41.472s25.173333-41.301333 49.92-41.301333 41.301333 16.384 41.301333 41.301333-16.554667 41.514667-41.301333 41.514667z" fill="#1AAC18" p-id="6621"></path><path d="M978.944 617.557333c0-132.48-132.522667-240.426667-281.386667-240.426666-157.653333 0-281.770667 107.946667-281.770666 240.426666 0 132.693333 124.16 240.469333 281.770666 240.469334 32.938667 0 66.218667-8.362667 99.370667-16.554667l90.837333 49.664-24.96-82.773333c66.645333-49.749333 116.138667-115.968 116.138667-190.805334z m-372.778667-41.301333c-16.554667 0-33.109333-16.384-33.109333-33.152 0-16.554667 16.725333-33.109333 33.109333-33.109333 25.130667 0 41.514667 16.554667 41.514667 33.109333 0 16.768-16.384 33.152-41.514667 33.152z m182.186667 0c-16.341333 0-32.938667-16.384-32.938667-33.152 0-16.554667 16.597333-33.109333 32.981334-33.109333 24.746667 0 41.472 16.554667 41.472 33.109333 0 16.768-16.554667 33.152-41.472 33.152z" fill="#1AAC18" p-id="6622"></path></svg>