<svg t="1590478942182" class="icon" viewBox="0 0 1024 1024" version="1.1" xmlns="http://www.w3.org/2000/svg" p-id="2618" width="200" height="200"><path d="M842.026667 727.594667H181.248V245.632h660.778667v481.962667z m-713.642667 0a52.906667 52.906667 0 0 0 52.864 52.906666h660.693333c29.269333 0 52.864-23.68 52.864-52.906666V245.632a52.906667 52.906667 0 0 0-52.906666-52.864H181.290667c-29.269333 0-52.906667 23.68-52.906667 52.906667v481.92z m629.333333 176.597333a26.368 26.368 0 0 0 26.368-26.410667v-1.194666a26.453333 26.453333 0 0 0-26.368-26.453334H265.557333a26.368 26.368 0 0 0-26.410666 26.453334v1.194666c0 14.592 11.818667 26.410667 26.410666 26.410667h492.16z m-273.109333-53.546667h52.864v-70.144h-51.626667l-1.28 70.144z" fill="currentColor" p-id="2619"></path><path d="M323.754667 530.773333a25.088 25.088 0 0 0 0 50.176h143.061333a25.088 25.088 0 0 0 0-50.133333H323.754667z m0-125.44a25.088 25.088 0 0 0 0 50.133334h353.749333a25.088 25.088 0 0 0 0.128-50.133334H323.754667z" fill="currentColor" p-id="2620"></path></svg>