<?xml version="1.0" standalone="no"?><!DOCTYPE svg PUBLIC "-//W3C//DTD SVG 1.1//EN" "http://www.w3.org/Graphics/SVG/1.1/DTD/svg11.dtd"><svg class="icon" width="200px" height="200.00px" viewBox="0 0 1024 1024" version="1.1" xmlns="http://www.w3.org/2000/svg"><path fill="currentColor" d="M702.293333 669.013333a54.613333 54.613333 0 0 0 0-23.466666A58.88 58.88 0 0 0 655.786667 597.333333h-2.56a58.026667 58.026667 0 0 0-66.133334 46.08 58.453333 58.453333 0 0 0 0 24.32 59.306667 59.306667 0 0 0 46.506667 46.933334h11.946667a57.6 57.6 0 0 0 56.746666-45.653334z m-57.173333 9.813334a24.32 24.32 0 0 1-24.32-24.32 24.32 24.32 0 1 1 24.32 24.32z"  /><path fill="currentColor" d="M802.56 651.52a122.88 122.88 0 0 1-5.546667-27.733333 23.466667 23.466667 0 0 0-20.053333-18.346667h-2.56a30.293333 30.293333 0 0 1-30.293333-29.866667 53.333333 53.333333 0 0 1 0-8.106666 10.666667 10.666667 0 0 0 0-3.413334 27.306667 27.306667 0 0 0-9.386667-31.146666l-36.693333-20.906667h-10.666667a23.466667 23.466667 0 0 0-20.48 8.96 47.786667 47.786667 0 0 1-23.04 13.653333 49.066667 49.066667 0 0 1-21.76-11.52h-2.986667a29.013333 29.013333 0 0 0-20.48-8.96c-4.266667 0-6.826667 0-8.96 2.133334l-39.253333 20.48a28.16 28.16 0 0 0-8.96 31.146666 53.76 53.76 0 0 1 0 11.52 30.293333 30.293333 0 0 1-29.44 30.72 24.32 24.32 0 0 0-20.48 20.053334 188.586667 188.586667 0 0 0-4.266667 31.146666 82.346667 82.346667 0 0 0 4.266667 30.72 23.466667 23.466667 0 0 0 20.48 20.48 29.013333 29.013333 0 0 1 20.906667 8.533334 30.72 30.72 0 0 1 9.386666 20.906666 48.213333 48.213333 0 0 1 0 7.68 14.506667 14.506667 0 0 0 0 3.84 27.733333 27.733333 0 0 0 9.386667 31.146667l36.693333 20.48a17.493333 17.493333 0 0 1 9.386667 0 23.04 23.04 0 0 0 20.053333-8.96c3.84-3.84 15.786667-15.36 24.746667-15.36a45.653333 45.653333 0 0 1 25.173333 15.36 28.16 28.16 0 0 0 20.053334 8.96 22.186667 22.186667 0 0 0 11.52 0l37.12-20.48a28.16 28.16 0 0 0 8.96-31.146667 35.84 35.84 0 0 1 0-11.52 30.293333 30.293333 0 0 1 29.44-30.72h3.413333a24.32 24.32 0 0 0 20.48-20.053333 188.586667 188.586667 0 0 0 4.266667-31.146667z m-197.973333 109.653333a29.013333 29.013333 0 0 0-5.12 5.12l-21.333334-12.373333a61.013333 61.013333 0 0 0 3.84-17.92 64 64 0 0 0-53.76-62.72 26.453333 26.453333 0 0 0 0-5.546667 116.053333 116.053333 0 0 1 0-13.226666 90.453333 90.453333 0 0 1 0-10.24v-8.533334a62.72 62.72 0 0 0 53.333334-63.573333 49.493333 49.493333 0 0 0-3.84-17.493333l23.466666-12.8a30.72 30.72 0 0 0 9.386667 7.253333 57.6 57.6 0 0 0 34.133333 12.373333 60.586667 60.586667 0 0 0 34.133334-12.373333 34.56 34.56 0 0 1 6.4-5.546667h2.56l23.466666 12.8a61.013333 61.013333 0 0 0-3.84 17.493334 64.426667 64.426667 0 0 0 53.76 63.573333v5.12a114.346667 114.346667 0 0 1 0 14.08 52.906667 52.906667 0 0 1 0 18.346667 61.866667 61.866667 0 0 0-53.333333 63.146666 49.066667 49.066667 0 0 0 3.413333 17.493334l-23.466666 12.8-5.12-11.093334a61.013333 61.013333 0 0 0-35.84-12.8 71.68 71.68 0 0 0-36.266667 12.8 34.56 34.56 0 0 1-5.973333 3.84z"  /><path fill="currentColor" d="M480.853333 754.773333H290.986667a30.72 30.72 0 0 1-29.013334-29.866666 209.066667 209.066667 0 0 1 188.586667-206.933334h22.613333a142.08 142.08 0 0 0 78.933334-25.173333l8.106666-5.973333a149.333333 149.333333 0 0 0 56.32-116.48 144.64 144.64 0 0 0-42.666666-104.533334A146.346667 146.346667 0 0 0 469.333333 221.866667a148.053333 148.053333 0 0 0-145.92 147.626666 150.613333 150.613333 0 0 0 56.746667 116.906667l6.4 3.84-6.4 2.56A250.026667 250.026667 0 0 0 221.013333 725.333333a70.826667 70.826667 0 0 0 70.4 71.68h187.733334a19.626667 19.626667 0 0 0 18.346666-20.053333 19.2 19.2 0 0 0-16.64-22.186667z m-116.48-384A106.666667 106.666667 0 1 1 469.333333 476.16a107.946667 107.946667 0 0 1-104.96-106.24z"  /></svg>