<?xml version="1.0" standalone="no"?><!DOCTYPE svg PUBLIC "-//W3C//DTD SVG 1.1//EN" "http://www.w3.org/Graphics/SVG/1.1/DTD/svg11.dtd"><svg class="icon" width="200px" height="200.00px" viewBox="0 0 1024 1024" version="1.1" xmlns="http://www.w3.org/2000/svg"><path fill="currentColor" d="M695.466667 488.106667h-60.586667a20.053333 20.053333 0 1 0 0 40.106666h60.586667a20.053333 20.053333 0 0 0 0-40.106666zM480.853333 494.08v-2.56a148.053333 148.053333 0 0 0-85.333333-267.946667 148.053333 148.053333 0 0 0-85.333333 267.946667l3.413333 2.56h-3.84a262.826667 262.826667 0 0 0-174.506667 247.04 20.48 20.48 0 0 0 40.533334 0 221.866667 221.866667 0 0 1 443.306666 0 20.053333 20.053333 0 0 0 40.106667 0 262.826667 262.826667 0 0 0-178.346667-247.04z m-85.333333-15.36a107.946667 107.946667 0 1 1 0-215.893333 107.946667 107.946667 0 0 1 107.946667 107.946666 107.946667 107.946667 0 0 1-110.08 107.946667zM819.2 307.626667h-184.32a20.053333 20.053333 0 0 0 0 40.106666h184.32a20.053333 20.053333 0 0 0 0-40.106666zM755.2 396.8h-120.32a20.053333 20.053333 0 0 0 0 40.106667h120.32a20.053333 20.053333 0 1 0 0-40.106667z"  /></svg>