<?xml version="1.0" standalone="no"?><!DOCTYPE svg PUBLIC "-//W3C//DTD SVG 1.1//EN" "http://www.w3.org/Graphics/SVG/1.1/DTD/svg11.dtd"><svg class="icon" width="200px" height="200.00px" viewBox="0 0 1024 1024" version="1.1" xmlns="http://www.w3.org/2000/svg"><path fill="currentColor" d="M502.613333 269.226667h-20.053333a265.386667 265.386667 0 0 0-105.813333 21.76 273.92 273.92 0 0 0-144.64 144.213333 270.506667 270.506667 0 0 0 58.453333 298.666667 269.226667 269.226667 0 0 0 85.333333 58.026666 264.96 264.96 0 0 0 105.386667 21.76h3.413333a271.36 271.36 0 0 0 102.4-21.333333 276.48 276.48 0 0 0 144.64-144.64 272.213333 272.213333 0 0 0 21.333334-105.386667v-20.053333h-250.453334z m210.773334 291.84a229.12 229.12 0 0 1-66.986667 144.213333 232.96 232.96 0 0 1-163.413333 67.84 232.96 232.96 0 0 1-163.413334-67.84 232.106667 232.106667 0 0 1 145.066667-395.52v251.306667z"  /><path fill="#ffffff" d="M792.746667 369.493333a250.453333 250.453333 0 0 0-55.466667-82.346666 259.413333 259.413333 0 0 0-82.346667-55.466667A256 256 0 0 0 554.666667 213.333333h-19.626667v279.04H810.666667V469.333333a256 256 0 0 0-17.92-99.84z m-218.88 81.066667V251.733333a219.306667 219.306667 0 0 1 198.4 198.826667z"  /></svg>