<?xml version="1.0" standalone="no"?><!DOCTYPE svg PUBLIC "-//W3C//DTD SVG 1.1//EN" "http://www.w3.org/Graphics/SVG/1.1/DTD/svg11.dtd"><svg class="icon" width="200px" height="200.00px" viewBox="0 0 1024 1024" version="1.1" xmlns="http://www.w3.org/2000/svg"><path fill="currentColor" d="M745.386667 631.466667v-42.666667A62.72 62.72 0 0 0 682.666667 526.08h-151.466667v-49.493333h47.36a59.733333 59.733333 0 0 0 58.88-61.013334v-128a62.72 62.72 0 0 0-61.44-60.16h-128a63.146667 63.146667 0 0 0-61.44 61.44v128a62.72 62.72 0 0 0 61.866667 61.013334h42.666666v49.493333H341.333333a62.72 62.72 0 0 0-61.44 61.44v42.666667a62.293333 62.293333 0 0 0-61.44 61.013333v42.666667a62.72 62.72 0 0 0 61.44 61.44h42.666667a61.013333 61.013333 0 0 0 42.666667-18.346667 59.733333 59.733333 0 0 0 16.64-42.666667v-42.666666a62.72 62.72 0 0 0-61.013334-61.44v-46.933334a22.613333 22.613333 0 0 1 20.48-20.48h150.186667v67.413334h-0.853333a63.146667 63.146667 0 0 0-61.44 61.013333v42.666667a63.146667 63.146667 0 0 0 61.44 61.44h45.226666a60.16 60.16 0 0 0 58.88-61.44v-42.666667a62.72 62.72 0 0 0-61.44-61.013333h-2.133333v-67.413334H682.666667a22.186667 22.186667 0 0 1 20.906666 23.466667v42.666667h-2.133333A63.146667 63.146667 0 0 0 640 692.906667v42.666666a63.146667 63.146667 0 0 0 61.44 61.44h44.8a61.013333 61.013333 0 0 0 42.666667-18.346666 59.733333 59.733333 0 0 0 16.64-42.666667v-42.666667a63.146667 63.146667 0 0 0-60.16-61.866666z m-423.68 38.4h2.986666a22.613333 22.613333 0 0 1 14.933334 7.253333 20.48 20.48 0 0 1 5.546666 16.213333v44.8a21.76 21.76 0 0 1-21.76 20.48h-46.933333a23.893333 23.893333 0 0 1-15.36-7.253333 24.746667 24.746667 0 0 1-5.12-16.213333v-42.666667a22.186667 22.186667 0 0 1 6.4-16.64 20.48 20.48 0 0 1 16.64-5.973333z m213.333333 0h2.56a22.613333 22.613333 0 0 1 15.36 7.253333 20.48 20.48 0 0 1 5.546667 16.213333v42.666667a2.56 2.56 0 0 1 0 2.56 22.613333 22.613333 0 0 1-7.253334 15.36 23.466667 23.466667 0 0 1-14.506666 5.546667h-46.933334a22.613333 22.613333 0 0 1-20.906666-23.466667v-45.653333a22.186667 22.186667 0 0 1 7.68-14.933334 20.906667 20.906667 0 0 1 16.213333-5.546666z m-85.333333-231.253334h-2.56a22.186667 22.186667 0 0 1-20.48-23.466666v-128a22.186667 22.186667 0 0 1 22.186666-20.48h131.413334a22.613333 22.613333 0 0 1 20.906666 23.466666v128a22.186667 22.186667 0 0 1-22.186666 20.48h-128z m320.426666 298.666667v2.56a21.333333 21.333333 0 0 1-7.68 15.36 21.76 21.76 0 0 1-14.506666 5.546667h-47.36a22.186667 22.186667 0 0 1-20.906667-23.466667v-46.933333a22.186667 22.186667 0 0 1 23.466667-20.48h42.666666a21.76 21.76 0 0 1 15.36 6.4l2.133334 2.133333a20.906667 20.906667 0 0 1 4.693333 14.933333z"  /></svg>