<?xml version="1.0" standalone="no"?><!DOCTYPE svg PUBLIC "-//W3C//DTD SVG 1.1//EN" "http://www.w3.org/Graphics/SVG/1.1/DTD/svg11.dtd"><svg class="icon" width="200px" height="200.00px" viewBox="0 0 1024 1024" version="1.1" xmlns="http://www.w3.org/2000/svg"><path fill="currentColor" d="M608.426667 258.986667A117.333333 117.333333 0 0 0 512 308.48a116.906667 116.906667 0 0 0-96-49.493333H219.306667V733.866667h182.186666c33.28 0 85.333333 9.813333 92.16 28.586666v2.56h37.546667v-2.986666c5.973333-17.92 58.453333-28.16 92.16-28.16h179.626667V258.986667zM423.253333 298.666667a70.826667 70.826667 0 0 1 69.973334 61.44v349.013333a162.133333 162.133333 0 0 0-91.733334-17.066667H261.546667V298.666667h161.706666z m341.333334 0v390.826666h-139.52a163.413333 163.413333 0 0 0-92.16 17.066667V359.68A69.546667 69.546667 0 0 1 602.026667 298.666667h162.986666z"  /></svg>